<svg aria-hidden="true" style="position:absolute;width:0;height:0;overflow:hidden" xmlns="http://www.w3.org/2000/svg"><defs><symbol id="icon-arrow-up" viewBox="0 0 32 32"><path d="M0 16h.005c0 4.421 1.79 8.42 4.682 11.313S11.579 31.995 16 31.995V32h.001v-.005c4.42 0 8.42-1.79 11.313-4.682S31.996 20.421 31.996 16h.005v-.001h-.005c0-4.42-1.79-8.42-4.682-11.313S20.422.004 16.001.004v-.005H16v.005c-4.421 0-8.42 1.79-11.313 4.682S.005 11.578.005 15.999H0V16zm11.062 2.672a1.29 1.29 0 0 1-1.8-1.851l5.865-5.687.9.925-.901-.929a1.294 1.294 0 0 1 1.872.074l5.744 5.618a1.291 1.291 0 0 1-1.8 1.851l-4.919-4.811-4.961 4.811z"/></symbol></defs></svg>